<?xml version="1.0" encoding="UTF-8"?>
<svg xmlns="http://www.w3.org/2000/svg" xmlns:xlink="http://www.w3.org/1999/xlink" width="333.68pt" height="96.56pt" viewBox="0 0 333.68 96.56" version="1.1">
<defs>
<clipPath id="clip1">
  <path d="M 0 87 L 9 87 L 9 96.558594 L 0 96.558594 Z M 0 87 "/>
</clipPath>
<clipPath id="clip2">
  <path d="M 9 87 L 20 87 L 20 96.558594 L 9 96.558594 Z M 9 87 "/>
</clipPath>
<clipPath id="clip3">
  <path d="M 25 87 L 33 87 L 33 96.558594 L 25 96.558594 Z M 25 87 "/>
</clipPath>
<clipPath id="clip4">
  <path d="M 33 87 L 42 87 L 42 96.558594 L 33 96.558594 Z M 33 87 "/>
</clipPath>
<clipPath id="clip5">
  <path d="M 41 87 L 51 87 L 51 96.558594 L 41 96.558594 Z M 41 87 "/>
</clipPath>
<clipPath id="clip6">
  <path d="M 50 87 L 60 87 L 60 96.558594 L 50 96.558594 Z M 50 87 "/>
</clipPath>
<clipPath id="clip7">
  <path d="M 61 87 L 70 87 L 70 96.558594 L 61 96.558594 Z M 61 87 "/>
</clipPath>
<clipPath id="clip8">
  <path d="M 70 87 L 81 87 L 81 96.558594 L 70 96.558594 Z M 70 87 "/>
</clipPath>
<clipPath id="clip9">
  <path d="M 86 87 L 96 87 L 96 96.558594 L 86 96.558594 Z M 86 87 "/>
</clipPath>
<clipPath id="clip10">
  <path d="M 96 87 L 106 87 L 106 96.558594 L 96 96.558594 Z M 96 87 "/>
</clipPath>
<clipPath id="clip11">
  <path d="M 111 87 L 121 87 L 121 96.558594 L 111 96.558594 Z M 111 87 "/>
</clipPath>
<clipPath id="clip12">
  <path d="M 121 87 L 127 87 L 127 96.558594 L 121 96.558594 Z M 121 87 "/>
</clipPath>
<clipPath id="clip13">
  <path d="M 127 87 L 138 87 L 138 96.558594 L 127 96.558594 Z M 127 87 "/>
</clipPath>
<clipPath id="clip14">
  <path d="M 143 87 L 153 87 L 153 96.558594 L 143 96.558594 Z M 143 87 "/>
</clipPath>
<clipPath id="clip15">
  <path d="M 153 87 L 161 87 L 161 96.558594 L 153 96.558594 Z M 153 87 "/>
</clipPath>
<clipPath id="clip16">
  <path d="M 165 87 L 172 87 L 172 96.558594 L 165 96.558594 Z M 165 87 "/>
</clipPath>
<clipPath id="clip17">
  <path d="M 172 87 L 183 87 L 183 96.558594 L 172 96.558594 Z M 172 87 "/>
</clipPath>
<clipPath id="clip18">
  <path d="M 183 87 L 192 87 L 192 96.558594 L 183 96.558594 Z M 183 87 "/>
</clipPath>
<clipPath id="clip19">
  <path d="M 194 87 L 201 87 L 201 96.558594 L 194 96.558594 Z M 194 87 "/>
</clipPath>
<clipPath id="clip20">
  <path d="M 202 87 L 208 87 L 208 96.558594 L 202 96.558594 Z M 202 87 "/>
</clipPath>
<clipPath id="clip21">
  <path d="M 209 87 L 219 87 L 219 96.558594 L 209 96.558594 Z M 209 87 "/>
</clipPath>
<clipPath id="clip22">
  <path d="M 218 87 L 229 87 L 229 96.558594 L 218 96.558594 Z M 218 87 "/>
</clipPath>
<clipPath id="clip23">
  <path d="M 279 0 L 333.679688 0 L 333.679688 66 L 279 66 Z M 279 0 "/>
</clipPath>
</defs>
<g id="surface1">
<path style=" stroke:none;fill-rule:evenodd;fill:rgb(13.699341%,12.199402%,12.5%);fill-opacity:1;" d="M 67.78125 81.394531 L 64.417969 72.316406 L 62.992188 72.316406 L 62.992188 74.714844 L 64.101563 77.871094 L 62.992188 77.871094 L 62.992188 79.488281 L 64.597656 79.488281 L 65.214844 81.394531 Z M 62.992188 71.039063 L 63.148438 71.039063 C 63.304688 71.191406 63.625 71.191406 63.78125 71.191406 C 64.292969 71.191406 64.757813 71.039063 65.066406 70.722656 C 65.214844 70.410156 65.554688 69.9375 65.554688 69.132813 L 64.101563 69.132813 L 64.101563 69.785156 C 63.949219 69.9375 63.78125 69.9375 63.625 69.9375 C 63.472656 69.9375 63.472656 69.9375 63.304688 69.785156 L 62.992188 69.605469 Z M 62.992188 79.488281 L 61.402344 79.488281 L 60.769531 81.394531 L 58.375 81.394531 L 61.710938 72.316406 L 62.992188 72.316406 L 62.992188 74.714844 L 61.871094 77.871094 L 62.992188 77.871094 Z M 62.992188 69.605469 L 62.992188 71.039063 C 62.828125 71.039063 62.828125 70.875 62.667969 70.875 C 62.667969 70.875 62.511719 70.722656 62.347656 70.722656 C 62.203125 70.566406 62.03125 70.566406 61.871094 70.566406 C 61.710938 70.566406 61.554688 70.566406 61.554688 70.722656 C 61.402344 70.875 61.402344 71.039063 61.402344 71.191406 L 60.132813 71.191406 C 60.132813 70.722656 60.289063 70.097656 60.609375 69.785156 C 60.917969 69.441406 61.234375 69.285156 61.871094 69.285156 L 62.347656 69.285156 C 62.511719 69.441406 62.667969 69.441406 62.828125 69.605469 "/>
<path style=" stroke:none;fill-rule:evenodd;fill:rgb(13.699341%,12.199402%,12.5%);fill-opacity:1;" d="M 77.039063 76.753906 C 77.039063 75.34375 76.558594 74.222656 75.757813 73.28125 C 74.964844 72.472656 73.84375 72 72.253906 72 L 72.253906 73.753906 C 72.574219 73.753906 72.886719 73.753906 73.210938 73.90625 C 73.375 74.058594 73.675781 74.222656 73.84375 74.53125 C 74.15625 74.714844 74.335938 75.03125 74.335938 75.34375 C 74.496094 75.8125 74.621094 76.308594 74.621094 76.753906 C 74.621094 77.246094 74.496094 77.746094 74.496094 78.191406 C 74.335938 78.523438 74.15625 78.839844 73.84375 79.179688 C 73.675781 79.3125 73.542969 79.488281 73.210938 79.648438 C 72.886719 79.804688 72.574219 79.804688 72.253906 79.804688 L 72.253906 81.582031 C 73.84375 81.582031 74.964844 81.082031 75.757813 80.273438 C 76.558594 79.488281 77.039063 78.191406 77.039063 76.753906 M 72.253906 81.582031 C 70.804688 81.582031 69.691406 81.082031 68.902344 80.273438 C 68.097656 79.488281 67.613281 78.191406 67.613281 76.753906 C 67.613281 75.34375 68.097656 74.222656 68.902344 73.28125 C 69.691406 72.472656 70.804688 72 72.253906 72 L 72.253906 73.753906 C 71.949219 73.753906 71.761719 73.753906 71.453125 73.90625 C 71.132813 74.058594 70.953125 74.222656 70.804688 74.378906 C 70.484375 74.714844 70.324219 75.03125 70.167969 75.34375 C 70.167969 75.8125 69.996094 76.308594 69.996094 76.753906 C 69.996094 77.433594 70.167969 77.746094 70.167969 78.191406 C 70.324219 78.523438 70.484375 78.839844 70.648438 79.179688 C 70.953125 79.3125 71.132813 79.488281 71.453125 79.648438 C 71.761719 79.804688 71.949219 79.804688 72.253906 79.804688 "/>
<path style=" stroke:none;fill-rule:evenodd;fill:rgb(13.699341%,12.199402%,12.5%);fill-opacity:1;" d="M 91.703125 76.753906 C 91.703125 75.992188 91.539063 75.183594 91.234375 74.53125 C 90.769531 73.90625 90.28125 73.28125 89.644531 72.9375 C 89.3125 72.789063 88.8125 72.628906 88.378906 72.472656 C 88.03125 72.316406 87.691406 72.316406 87.386719 72.316406 L 87.386719 74.058594 C 87.542969 74.058594 87.691406 74.222656 87.878906 74.222656 C 88.378906 74.53125 88.6875 74.871094 89.003906 75.183594 C 89.15625 75.65625 89.3125 76.121094 89.3125 76.753906 C 89.3125 77.402344 89.15625 77.871094 89.003906 78.367188 C 88.8125 78.679688 88.507813 78.996094 88.03125 79.3125 C 87.878906 79.3125 87.542969 79.488281 87.386719 79.488281 L 87.386719 81.265625 L 88.179688 81.265625 C 88.6875 81.082031 89.15625 80.929688 89.644531 80.585938 C 90.28125 80.273438 90.769531 79.804688 91.074219 78.996094 C 91.539063 78.367188 91.703125 77.746094 91.703125 76.753906 M 87.386719 81.265625 C 87.085938 81.394531 86.753906 81.394531 86.273438 81.394531 L 83.101563 81.394531 L 83.101563 72.316406 L 87.386719 72.316406 L 87.386719 74.058594 L 87.222656 74.058594 C 86.917969 73.90625 86.609375 73.90625 85.964844 73.90625 L 85.460938 73.90625 L 85.460938 79.648438 L 85.964844 79.648438 C 86.609375 79.648438 87.085938 79.648438 87.222656 79.488281 L 87.386719 79.488281 "/>
<path style=" stroke:none;fill-rule:evenodd;fill:rgb(13.699341%,12.199402%,12.5%);fill-opacity:1;" d="M 99.996094 81.394531 L 93.460938 81.394531 L 93.460938 72.316406 L 99.996094 72.316406 L 99.996094 74.058594 L 95.871094 74.058594 L 95.871094 75.496094 L 99.847656 75.496094 L 99.847656 77.433594 L 95.871094 77.433594 L 95.871094 79.648438 L 99.996094 79.648438 "/>
<path style=" stroke:none;fill-rule:evenodd;fill:rgb(13.699341%,12.199402%,12.5%);fill-opacity:1;" d="M 114.84375 81.394531 L 111.316406 72.316406 L 110.050781 72.316406 L 110.050781 74.6875 L 111.171875 77.871094 L 110.050781 77.871094 L 110.050781 79.488281 L 111.648438 79.488281 L 112.257813 81.394531 Z M 110.050781 79.488281 L 108.289063 79.488281 L 107.664063 81.394531 L 105.246094 81.394531 L 108.765625 72.316406 L 110.050781 72.316406 L 110.050781 74.6875 L 108.925781 77.871094 L 110.050781 77.871094 "/>
<path style=" stroke:none;fill-rule:evenodd;fill:rgb(13.699341%,12.199402%,12.5%);fill-opacity:1;" d="M 123.597656 75.183594 C 123.597656 74.53125 123.460938 74.222656 123.277344 73.753906 C 123.121094 73.4375 122.8125 73.097656 122.492188 72.789063 C 122.175781 72.628906 121.855469 72.472656 121.355469 72.472656 C 121.054688 72.316406 120.5625 72.316406 119.929688 72.316406 L 119.769531 72.316406 L 119.769531 73.90625 C 120.097656 74.058594 120.253906 74.058594 120.429688 74.058594 C 120.734375 74.222656 120.894531 74.378906 120.894531 74.53125 C 121.054688 74.714844 121.210938 74.871094 121.210938 75.183594 C 121.210938 75.496094 121.054688 75.65625 121.054688 75.8125 C 121.054688 75.992188 120.894531 76.121094 120.734375 76.308594 C 120.5625 76.441406 120.429688 76.621094 120.097656 76.621094 L 119.769531 76.621094 L 119.769531 78.367188 L 119.929688 78.367188 C 120.5625 78.367188 121.054688 78.367188 121.550781 78.058594 C 122.007813 77.871094 122.492188 77.746094 122.8125 77.246094 C 122.949219 77.089844 123.277344 76.753906 123.460938 76.308594 C 123.460938 75.992188 123.597656 75.496094 123.597656 75.183594 M 119.769531 78.367188 L 118.492188 78.367188 L 118.492188 81.394531 L 116.109375 81.394531 L 116.109375 72.316406 L 119.769531 72.316406 L 119.769531 73.90625 L 118.492188 73.90625 L 118.492188 76.621094 L 119.769531 76.621094 "/>
<path style=" stroke:none;fill-rule:evenodd;fill:rgb(13.699341%,12.199402%,12.5%);fill-opacity:1;" d="M 134.140625 76.753906 C 134.140625 75.34375 133.640625 74.222656 132.871094 73.28125 C 132.0625 72.472656 130.945313 72 129.496094 72 L 129.496094 73.753906 C 129.664063 73.753906 129.96875 73.753906 130.300781 73.90625 C 130.636719 74.058594 130.800781 74.222656 130.945313 74.53125 C 131.277344 74.714844 131.4375 75.03125 131.59375 75.34375 C 131.59375 75.8125 131.746094 76.308594 131.746094 76.753906 C 131.746094 77.246094 131.59375 77.746094 131.59375 78.191406 C 131.4375 78.523438 131.277344 78.839844 130.945313 79.179688 C 130.800781 79.3125 130.636719 79.488281 130.300781 79.648438 C 129.96875 79.804688 129.664063 79.804688 129.496094 79.804688 L 129.496094 81.582031 C 130.945313 81.582031 132.0625 81.082031 132.871094 80.273438 C 133.640625 79.488281 134.140625 78.191406 134.140625 76.753906 M 129.496094 81.582031 L 129.335938 81.582031 C 127.90625 81.582031 126.785156 81.082031 126.003906 80.273438 C 125.199219 79.488281 124.714844 78.191406 124.714844 76.753906 C 124.714844 75.34375 125.199219 74.222656 126.003906 73.28125 C 126.785156 72.472656 127.90625 72 129.335938 72 L 129.496094 72 L 129.496094 73.753906 C 129.175781 73.753906 128.867188 73.753906 128.554688 73.90625 C 128.390625 74.058594 128.085938 74.222656 127.90625 74.378906 C 127.585938 74.714844 127.429688 75.03125 127.429688 75.34375 C 127.285156 75.8125 127.097656 76.308594 127.097656 76.753906 C 127.097656 77.433594 127.285156 77.746094 127.285156 78.191406 C 127.429688 78.523438 127.585938 78.839844 127.90625 79.179688 C 128.085938 79.3125 128.234375 79.488281 128.554688 79.648438 C 128.867188 79.804688 129.175781 79.804688 129.496094 79.804688 "/>
<path style=" stroke:none;fill-rule:evenodd;fill:rgb(13.699341%,12.199402%,12.5%);fill-opacity:1;" d="M 140.832031 81.394531 L 135.574219 81.394531 L 135.574219 79.804688 L 137.003906 79.804688 L 137.003906 73.90625 L 135.574219 73.90625 L 135.574219 72.316406 L 140.832031 72.316406 L 140.832031 73.90625 L 139.382813 73.90625 L 139.382813 79.804688 L 140.832031 79.804688 "/>
<path style=" stroke:none;fill-rule:evenodd;fill:rgb(13.699341%,12.199402%,12.5%);fill-opacity:1;" d="M 151.683594 76.753906 C 151.683594 75.34375 151.199219 74.222656 150.414063 73.28125 C 149.597656 72.472656 148.332031 72 146.914063 72 L 146.914063 73.753906 C 147.210938 73.753906 147.550781 73.753906 147.867188 73.90625 C 148.015625 74.058594 148.332031 74.222656 148.496094 74.53125 C 148.652344 74.714844 148.796875 75.03125 148.960938 75.34375 C 149.128906 75.8125 149.128906 76.308594 149.128906 76.753906 C 149.128906 77.246094 149.128906 77.746094 148.960938 78.191406 C 148.960938 78.523438 148.796875 78.839844 148.496094 79.179688 C 148.332031 79.3125 148.015625 79.488281 147.867188 79.648438 C 147.550781 79.804688 147.210938 79.804688 146.914063 79.804688 L 146.914063 81.582031 C 148.332031 81.582031 149.597656 81.082031 150.414063 80.273438 C 151.199219 79.488281 151.683594 78.191406 151.683594 76.753906 M 146.914063 81.582031 C 145.449219 81.582031 144.324219 81.082031 143.53125 80.273438 C 142.585938 79.488281 142.253906 78.191406 142.253906 76.753906 C 142.253906 75.34375 142.574219 74.222656 143.53125 73.28125 C 144.324219 72.472656 145.449219 72 146.914063 72 L 146.914063 73.753906 C 146.5625 73.753906 146.40625 73.753906 146.082031 73.90625 C 145.757813 74.058594 145.605469 74.222656 145.289063 74.378906 C 145.140625 74.714844 144.980469 75.03125 144.824219 75.34375 C 144.664063 75.8125 144.664063 76.308594 144.664063 76.753906 C 144.664063 77.433594 144.664063 77.746094 144.824219 78.191406 C 144.980469 78.523438 145.140625 78.839844 145.289063 79.179688 C 145.605469 79.3125 145.769531 79.488281 146.082031 79.648438 C 146.40625 79.804688 146.5625 79.804688 146.914063 79.804688 "/>
<path style=" stroke:none;fill-rule:evenodd;fill:rgb(13.699341%,12.199402%,12.5%);fill-opacity:1;" d="M 166.207031 81.394531 L 162.84375 72.316406 L 161.402344 72.316406 L 161.402344 74.6875 L 162.519531 77.925781 L 161.402344 77.925781 L 161.402344 79.488281 L 162.984375 79.488281 L 163.644531 81.394531 Z M 161.402344 71.191406 L 162.84375 71.191406 L 161.402344 68.816406 Z M 161.402344 79.488281 L 159.804688 79.488281 L 159.171875 81.394531 L 156.789063 81.394531 L 160.128906 72.316406 L 161.402344 72.316406 L 161.402344 74.6875 L 160.285156 77.925781 L 161.402344 77.925781 Z M 161.402344 68.816406 L 161.402344 71.191406 L 159.171875 68.976563 L 159.171875 68.816406 Z M 161.402344 68.816406 "/>
<path style=" stroke:none;fill-rule:evenodd;fill:rgb(13.699341%,12.199402%,12.5%);fill-opacity:1;" d="M 178.3125 81.394531 L 171.796875 81.394531 L 171.796875 72.316406 L 178.3125 72.316406 L 178.3125 74.058594 L 174.183594 74.058594 L 174.183594 75.496094 L 177.992188 75.496094 L 177.992188 77.433594 L 174.183594 77.433594 L 174.183594 79.648438 L 178.3125 79.648438 "/>
<path style=" stroke:none;fill-rule:evenodd;fill:rgb(13.699341%,12.199402%,12.5%);fill-opacity:1;" d="M 187.582031 78.523438 C 187.582031 79.3125 187.273438 80.117188 186.4375 80.585938 C 185.648438 81.265625 184.699219 81.582031 183.421875 81.582031 C 182.617188 81.582031 181.992188 81.394531 181.34375 81.265625 C 180.875 81.265625 180.230469 81.082031 179.75 80.773438 L 179.75 78.679688 L 180.070313 78.679688 C 180.558594 78.996094 181.035156 79.3125 181.660156 79.488281 C 182.300781 79.804688 182.953125 79.804688 183.421875 79.804688 L 184.046875 79.804688 C 184.210938 79.804688 184.390625 79.804688 184.546875 79.648438 C 184.699219 79.648438 184.855469 79.488281 185.015625 79.3125 C 185.183594 79.3125 185.183594 79.152344 185.183594 78.835938 C 185.183594 78.679688 185.015625 78.523438 184.855469 78.367188 C 184.699219 78.191406 184.546875 78.058594 184.210938 78.058594 C 183.890625 77.871094 183.421875 77.871094 183.117188 77.871094 C 182.765625 77.746094 182.300781 77.746094 181.992188 77.5625 C 181.183594 77.246094 180.695313 76.929688 180.410156 76.621094 C 180.070313 76.121094 179.925781 75.65625 179.925781 75.03125 C 179.925781 74.058594 180.230469 73.4375 181.035156 72.941406 C 181.820313 72.316406 182.765625 72.164063 183.890625 72.164063 C 184.546875 72.164063 185.183594 72.164063 185.648438 72.316406 C 186.277344 72.316406 186.761719 72.472656 187.273438 72.628906 L 187.273438 74.6875 L 186.9375 74.6875 C 186.613281 74.53125 186.128906 74.222656 185.648438 74.058594 C 185.183594 73.90625 184.546875 73.753906 184.046875 73.753906 L 183.421875 73.753906 C 183.265625 73.753906 183.117188 73.90625 182.765625 73.90625 C 182.617188 74.058594 182.617188 74.058594 182.46875 74.222656 C 182.300781 74.378906 182.300781 74.53125 182.300781 74.6875 C 182.300781 74.871094 182.300781 75.03125 182.617188 75.183594 C 182.765625 75.34375 183.117188 75.496094 183.554688 75.496094 C 183.890625 75.65625 184.210938 75.65625 184.546875 75.8125 C 184.855469 75.8125 185.183594 75.992188 185.503906 75.992188 C 186.277344 76.308594 186.761719 76.621094 187.085938 76.929688 C 187.414063 77.433594 187.582031 77.871094 187.582031 78.523438 "/>
<path style=" stroke:none;fill-rule:evenodd;fill:rgb(13.699341%,12.199402%,12.5%);fill-opacity:1;" d="M 193.3125 81.582031 C 192.671875 81.582031 192.046875 81.394531 191.398438 81.265625 C 190.902344 81.082031 190.445313 80.769531 189.964844 80.269531 C 189.476563 79.957031 189.164063 79.488281 189.003906 78.839844 C 188.84375 78.191406 188.671875 77.5625 188.671875 76.753906 C 188.671875 76.121094 188.84375 75.496094 189.003906 74.871094 C 189.164063 74.222656 189.476563 73.753906 189.964844 73.28125 C 190.289063 72.941406 190.765625 72.628906 191.398438 72.316406 C 192.046875 72.164063 192.671875 72 193.3125 72 C 193.785156 72 194.125 72.164063 194.402344 72.164063 C 194.75 72.164063 194.90625 72.164063 195.21875 72.316406 C 195.546875 72.316406 195.699219 72.472656 196.042969 72.472656 C 196.175781 72.628906 196.339844 72.789063 196.5 72.789063 L 196.5 75.03125 L 196.339844 75.03125 C 196.175781 74.871094 196.042969 74.871094 195.855469 74.714844 C 195.699219 74.53125 195.546875 74.378906 195.21875 74.222656 C 195.0625 74.222656 194.75 74.058594 194.59375 73.90625 C 194.273438 73.90625 193.960938 73.753906 193.628906 73.753906 C 193.3125 73.753906 193.003906 73.90625 192.671875 73.90625 C 192.503906 74.058594 192.203125 74.222656 191.890625 74.53125 C 191.710938 74.714844 191.546875 75.03125 191.398438 75.34375 C 191.242188 75.8125 191.078125 76.308594 191.078125 76.753906 C 191.078125 77.433594 191.242188 77.871094 191.398438 78.191406 C 191.546875 78.679688 191.710938 78.996094 192.046875 79.179688 C 192.203125 79.308594 192.503906 79.488281 192.835938 79.644531 C 193.160156 79.804688 193.46875 79.804688 193.628906 79.804688 C 193.960938 79.804688 194.273438 79.804688 194.59375 79.644531 C 194.90625 79.488281 195.0625 79.488281 195.386719 79.308594 C 195.546875 79.179688 195.699219 78.996094 195.855469 78.996094 C 196.042969 78.839844 196.175781 78.679688 196.339844 78.523438 L 196.5 78.523438 L 196.5 80.769531 C 196.339844 80.929688 196.175781 80.929688 195.855469 81.082031 C 195.699219 81.082031 195.546875 81.265625 195.21875 81.265625 C 194.90625 81.394531 194.75 81.394531 194.402344 81.394531 C 194.125 81.582031 193.785156 81.582031 193.3125 81.582031 "/>
<path style=" stroke:none;fill-rule:evenodd;fill:rgb(13.699341%,12.199402%,12.5%);fill-opacity:1;" d="M 207.195313 76.753906 C 207.195313 75.34375 206.714844 74.222656 205.910156 73.28125 C 205.09375 72.472656 203.84375 72 202.398438 72 L 202.398438 73.753906 C 202.730469 73.753906 203.027344 73.753906 203.34375 73.90625 C 203.5 74.058594 203.84375 74.222656 204.003906 74.53125 C 204.164063 74.714844 204.46875 75.03125 204.46875 75.34375 C 204.65625 75.8125 204.65625 76.308594 204.65625 76.753906 C 204.65625 77.246094 204.65625 77.746094 204.46875 78.191406 C 204.46875 78.523438 204.332031 78.839844 204.003906 79.179688 C 203.84375 79.3125 203.5 79.488281 203.34375 79.648438 C 203.027344 79.804688 202.730469 79.804688 202.398438 79.804688 L 202.398438 81.582031 C 203.84375 81.582031 205.09375 81.082031 205.910156 80.273438 C 206.714844 79.488281 207.195313 78.191406 207.195313 76.753906 M 202.398438 81.582031 C 200.96875 81.582031 199.855469 81.082031 199.035156 80.273438 C 198.089844 79.488281 197.777344 78.191406 197.777344 76.753906 C 197.777344 75.34375 198.089844 74.222656 199.035156 73.28125 C 199.855469 72.472656 200.96875 72 202.398438 72 L 202.398438 73.753906 C 202.082031 73.753906 201.921875 73.753906 201.585938 73.90625 C 201.273438 74.058594 201.128906 74.222656 200.796875 74.378906 C 200.636719 74.714844 200.480469 75.03125 200.324219 75.34375 C 200.160156 75.8125 200.160156 76.308594 200.160156 76.753906 C 200.160156 77.433594 200.160156 77.746094 200.324219 78.191406 C 200.480469 78.523438 200.636719 78.839844 200.796875 79.179688 C 201.128906 79.3125 201.273438 79.488281 201.585938 79.648438 C 201.921875 79.804688 202.082031 79.804688 202.398438 79.804688 "/>
<path style=" stroke:none;fill-rule:evenodd;fill:rgb(13.699341%,12.199402%,12.5%);fill-opacity:1;" d="M 215.472656 81.394531 L 208.945313 81.394531 L 208.945313 72.316406 L 211.332031 72.316406 L 211.332031 79.648438 L 215.472656 79.648438 "/>
<path style=" stroke:none;fill-rule:evenodd;fill:rgb(13.699341%,12.199402%,12.5%);fill-opacity:1;" d="M 225.375 81.394531 L 222.023438 72.316406 L 220.582031 72.316406 L 220.582031 74.6875 L 221.703125 77.871094 L 220.582031 77.871094 L 220.582031 79.488281 L 222.363281 79.488281 L 222.964844 81.394531 Z M 220.582031 79.488281 L 218.980469 79.488281 L 218.355469 81.394531 L 215.953125 81.394531 L 219.296875 72.316406 L 220.582031 72.316406 L 220.582031 74.6875 L 219.445313 77.871094 L 220.582031 77.871094 "/>
<path style=" stroke:none;fill-rule:evenodd;fill:rgb(13.699341%,12.199402%,12.5%);fill-opacity:1;" d="M 238.136719 74.058594 L 235.25 74.058594 L 235.25 81.394531 L 232.878906 81.394531 L 232.878906 74.058594 L 229.988281 74.058594 L 229.988281 72.316406 L 238.136719 72.316406 "/>
<path style=" stroke:none;fill-rule:evenodd;fill:rgb(13.699341%,12.199402%,12.5%);fill-opacity:1;" d="M 246.113281 81.394531 L 239.566406 81.394531 L 239.566406 72.316406 L 246.113281 72.316406 L 246.113281 74.058594 L 241.78125 74.058594 L 241.78125 75.496094 L 245.796875 75.496094 L 245.796875 77.433594 L 241.78125 77.433594 L 241.78125 79.648438 L 246.113281 79.648438 Z M 244.988281 68.816406 L 244.988281 68.976563 L 242.90625 71.191406 L 241.304688 71.191406 L 242.90625 68.816406 "/>
<path style=" stroke:none;fill-rule:evenodd;fill:rgb(13.699341%,12.199402%,12.5%);fill-opacity:1;" d="M 252.15625 81.582031 C 251.53125 81.582031 250.894531 81.394531 250.261719 81.265625 C 249.773438 81.082031 249.304688 80.769531 248.828125 80.269531 C 248.339844 79.957031 248.023438 79.488281 247.871094 78.839844 C 247.714844 78.191406 247.546875 77.5625 247.546875 76.753906 C 247.546875 76.121094 247.714844 75.496094 247.871094 74.871094 C 248.023438 74.222656 248.339844 73.753906 248.828125 73.28125 C 249.148438 72.941406 249.613281 72.628906 250.261719 72.316406 C 250.894531 72.164063 251.53125 72 252.15625 72 C 252.644531 72 252.976563 72.164063 253.273438 72.164063 C 253.613281 72.164063 253.746094 72.164063 254.066406 72.316406 C 254.398438 72.316406 254.570313 72.472656 254.871094 72.472656 C 255.035156 72.628906 255.191406 72.789063 255.351563 72.789063 L 255.351563 75.03125 L 255.191406 75.03125 C 255.035156 74.871094 254.871094 74.871094 254.703125 74.714844 C 254.570313 74.53125 254.398438 74.378906 254.066406 74.222656 C 253.910156 74.222656 253.613281 74.058594 253.445313 73.90625 C 253.121094 73.90625 252.808594 73.753906 252.488281 73.753906 C 252.15625 73.753906 251.851563 73.90625 251.53125 73.90625 C 251.386719 74.058594 251.0625 74.222656 250.726563 74.53125 C 250.570313 74.714844 250.40625 75.03125 250.261719 75.34375 C 250.101563 75.8125 249.929688 76.308594 249.929688 76.753906 C 249.929688 77.433594 250.101563 77.871094 250.261719 78.191406 C 250.40625 78.679688 250.570313 78.996094 250.894531 79.179688 C 251.0625 79.308594 251.386719 79.488281 251.695313 79.644531 C 252.011719 79.804688 252.320313 79.804688 252.488281 79.804688 C 252.808594 79.804688 253.121094 79.804688 253.445313 79.644531 C 253.746094 79.488281 253.910156 79.488281 254.238281 79.308594 C 254.398438 79.179688 254.570313 78.996094 254.703125 78.996094 C 254.871094 78.839844 255.035156 78.679688 255.191406 78.523438 L 255.351563 78.523438 L 255.351563 80.769531 C 255.191406 80.929688 255.035156 80.929688 254.703125 81.082031 C 254.570313 81.082031 254.398438 81.265625 254.066406 81.265625 C 253.746094 81.394531 253.445313 81.394531 253.273438 81.394531 C 252.976563 81.582031 252.644531 81.582031 252.15625 81.582031 "/>
<path style=" stroke:none;fill-rule:evenodd;fill:rgb(13.699341%,12.199402%,12.5%);fill-opacity:1;" d="M 265.398438 81.394531 L 263.160156 81.394531 L 259.34375 75.183594 L 259.34375 81.394531 L 257.117188 81.394531 L 257.117188 72.316406 L 259.964844 72.316406 L 263.351563 77.433594 L 263.351563 72.316406 L 265.398438 72.316406 "/>
<path style=" stroke:none;fill-rule:evenodd;fill:rgb(13.699341%,12.199402%,12.5%);fill-opacity:1;" d="M 272.746094 81.394531 L 267.339844 81.394531 L 267.339844 79.804688 L 268.917969 79.804688 L 268.917969 73.90625 L 267.339844 73.90625 L 267.339844 72.316406 L 272.746094 72.316406 L 272.746094 73.90625 L 271.140625 73.90625 L 271.140625 79.804688 L 272.746094 79.804688 "/>
<path style=" stroke:none;fill-rule:evenodd;fill:rgb(13.699341%,12.199402%,12.5%);fill-opacity:1;" d="M 278.652344 81.582031 C 277.996094 81.582031 277.363281 81.394531 276.871094 81.265625 C 276.238281 81.082031 275.769531 80.769531 275.292969 80.269531 C 274.976563 79.957031 274.65625 79.488281 274.332031 78.839844 C 274.191406 78.191406 274.011719 77.5625 274.011719 76.753906 C 274.011719 76.121094 274.191406 75.496094 274.332031 74.871094 C 274.65625 74.222656 274.976563 73.753906 275.292969 73.28125 C 275.769531 72.941406 276.238281 72.628906 276.714844 72.316406 C 277.363281 72.164063 277.996094 72 278.652344 72 C 279.109375 72 279.421875 72.164063 279.769531 72.164063 C 280.078125 72.164063 280.421875 72.164063 280.566406 72.316406 C 280.886719 72.316406 281.191406 72.472656 281.347656 72.472656 C 281.542969 72.628906 281.816406 72.789063 281.976563 72.789063 L 281.976563 75.03125 L 281.667969 75.03125 C 281.542969 74.871094 281.347656 74.871094 281.191406 74.714844 C 281.046875 74.53125 280.886719 74.378906 280.722656 74.222656 C 280.421875 74.222656 280.246094 74.058594 279.921875 73.90625 C 279.621094 73.90625 279.421875 73.753906 279.109375 73.753906 C 278.785156 73.753906 278.464844 73.90625 278.160156 73.90625 C 277.839844 74.058594 277.53125 74.222656 277.363281 74.53125 C 277.046875 74.714844 276.871094 75.03125 276.714844 75.34375 C 276.578125 75.8125 276.578125 76.308594 276.578125 76.753906 C 276.578125 77.433594 276.578125 77.871094 276.714844 78.191406 C 276.871094 78.679688 277.046875 78.996094 277.363281 79.179688 C 277.53125 79.308594 277.839844 79.488281 278.160156 79.644531 C 278.464844 79.804688 278.785156 79.804688 279.109375 79.804688 C 279.421875 79.804688 279.621094 79.804688 279.921875 79.644531 C 280.246094 79.488281 280.566406 79.488281 280.722656 79.308594 C 280.886719 79.179688 281.046875 78.996094 281.191406 78.996094 C 281.542969 78.839844 281.542969 78.679688 281.667969 78.523438 L 281.976563 78.523438 L 281.976563 80.769531 C 281.667969 80.929688 281.542969 80.929688 281.347656 81.082031 C 281.046875 81.082031 280.886719 81.265625 280.566406 81.265625 C 280.421875 81.394531 280.078125 81.394531 279.769531 81.394531 C 279.621094 81.582031 279.109375 81.582031 278.652344 81.582031 "/>
<path style=" stroke:none;fill-rule:evenodd;fill:rgb(13.699341%,12.199402%,12.5%);fill-opacity:1;" d="M 292.042969 81.394531 L 288.703125 72.316406 L 287.429688 72.316406 L 287.429688 74.6875 L 288.382813 77.871094 L 287.429688 77.871094 L 287.429688 79.488281 L 289.011719 79.488281 L 289.636719 81.394531 Z M 287.429688 79.488281 L 285.65625 79.488281 L 285.019531 81.394531 L 282.636719 81.394531 L 285.976563 72.316406 L 287.429688 72.316406 L 287.429688 74.6875 L 286.316406 77.871094 L 287.429688 77.871094 "/>
<path style=" stroke:none;fill-rule:evenodd;fill:rgb(13.699341%,12.199402%,12.5%);fill-opacity:1;" d="M 6.535156 74.058594 L 2.394531 74.058594 L 2.394531 75.65625 L 6.214844 75.65625 L 6.214844 77.433594 L 2.394531 77.433594 L 2.394531 81.394531 L 0 81.394531 L 0 72.316406 L 6.535156 72.316406 "/>
<path style=" stroke:none;fill-rule:evenodd;fill:rgb(13.699341%,12.199402%,12.5%);fill-opacity:1;" d="M 16.269531 78.058594 C 16.269531 79.179688 15.78125 80.117188 15.136719 80.585938 C 14.480469 81.265625 13.386719 81.578125 12.121094 81.578125 C 10.839844 81.578125 9.707031 81.265625 9.082031 80.585938 C 8.4375 80.117188 8.125 79.179688 8.125 78.058594 L 8.125 72.316406 L 10.339844 72.316406 L 10.339844 77.871094 C 10.339844 78.523438 10.496094 78.996094 10.839844 79.3125 C 11.148438 79.648438 11.464844 79.804688 12.121094 79.804688 C 12.746094 79.804688 13.222656 79.648438 13.386719 79.3125 C 13.691406 78.996094 13.882813 78.523438 13.882813 77.871094 L 13.882813 72.316406 L 16.269531 72.316406 "/>
<path style=" stroke:none;fill-rule:evenodd;fill:rgb(13.699341%,12.199402%,12.5%);fill-opacity:1;" d="M 26.613281 81.394531 L 24.398438 81.394531 L 20.566406 75.183594 L 20.566406 81.394531 L 18.328125 81.394531 L 18.328125 72.316406 L 21.214844 72.316406 L 24.554688 77.433594 L 24.554688 72.316406 L 26.613281 72.316406 "/>
<path style=" stroke:none;fill-rule:evenodd;fill:rgb(13.699341%,12.199402%,12.5%);fill-opacity:1;" d="M 37.640625 76.753906 C 37.640625 75.992188 37.472656 75.183594 37.148438 74.53125 C 36.683594 73.90625 36.203125 73.28125 35.570313 72.9375 C 35.257813 72.789063 34.757813 72.628906 34.28125 72.472656 C 33.976563 72.316406 33.667969 72.316406 33.320313 72.316406 L 33.320313 74.058594 C 33.476563 74.058594 33.667969 74.222656 33.8125 74.222656 C 34.28125 74.53125 34.601563 74.871094 34.925781 75.183594 C 35.089844 75.65625 35.257813 76.121094 35.257813 76.753906 C 35.257813 77.402344 35.089844 77.871094 34.925781 78.367188 C 34.757813 78.679688 34.441406 78.996094 33.976563 79.3125 C 33.8125 79.3125 33.476563 79.488281 33.320313 79.488281 L 33.320313 81.265625 L 34.132813 81.265625 C 34.601563 81.082031 35.089844 80.929688 35.570313 80.585938 C 36.203125 80.273438 36.683594 79.804688 36.984375 78.996094 C 37.472656 78.367188 37.640625 77.746094 37.640625 76.753906 M 33.320313 81.265625 C 33.011719 81.394531 32.523438 81.394531 32.210938 81.394531 L 29.023438 81.394531 L 29.023438 72.316406 L 33.320313 72.316406 L 33.320313 74.058594 L 33.167969 74.058594 C 32.851563 73.90625 32.523438 73.90625 31.90625 73.90625 L 31.40625 73.90625 L 31.40625 79.648438 L 31.90625 79.648438 C 32.523438 79.648438 33.011719 79.648438 33.167969 79.488281 L 33.320313 79.488281 "/>
<path style=" stroke:none;fill-rule:evenodd;fill:rgb(13.699341%,12.199402%,12.5%);fill-opacity:1;" d="M 47.816406 81.394531 L 44.472656 72.316406 L 43.054688 72.316406 L 43.054688 74.6875 L 44.171875 77.871094 L 43.054688 77.871094 L 43.054688 79.488281 L 44.816406 79.488281 L 45.441406 81.394531 Z M 43.054688 79.488281 L 41.476563 79.488281 L 40.828125 81.394531 L 38.441406 81.394531 L 41.792969 72.316406 L 43.054688 72.316406 L 43.054688 74.6875 L 41.941406 77.871094 L 43.054688 77.871094 "/>
<path style=" stroke:none;fill-rule:evenodd;fill:rgb(13.699341%,12.199402%,12.5%);fill-opacity:1;" d="M 53.257813 81.582031 C 52.609375 81.582031 52.007813 81.394531 51.347656 81.265625 C 50.871094 81.082031 50.246094 80.769531 49.90625 80.269531 C 49.441406 79.957031 49.125 79.488281 48.949219 78.839844 C 48.804688 78.191406 48.648438 77.5625 48.648438 76.753906 C 48.648438 76.121094 48.804688 75.496094 48.949219 74.871094 C 49.125 74.222656 49.441406 73.753906 49.90625 73.28125 C 50.246094 72.941406 50.714844 72.628906 51.347656 72.316406 C 52.007813 72.164063 52.609375 72 53.257813 72 C 53.578125 72 54.054688 72.164063 54.375 72.164063 C 54.523438 72.164063 54.859375 72.164063 55.15625 72.316406 C 55.515625 72.316406 55.648438 72.472656 55.960938 72.472656 C 56.144531 72.628906 56.292969 72.789063 56.460938 72.789063 L 56.460938 75.03125 L 56.292969 75.03125 C 56.144531 74.871094 55.960938 74.871094 55.824219 74.714844 C 55.648438 74.53125 55.339844 74.378906 55.15625 74.222656 C 55.023438 74.222656 54.710938 74.058594 54.523438 73.90625 C 54.214844 73.90625 53.898438 73.753906 53.578125 73.753906 C 53.257813 73.753906 52.953125 73.90625 52.609375 73.90625 C 52.328125 74.058594 52.132813 74.222656 51.828125 74.53125 C 51.664063 74.714844 51.347656 75.03125 51.191406 75.496094 C 51.191406 75.8125 51.050781 76.308594 51.050781 76.753906 C 51.050781 77.433594 51.191406 77.871094 51.347656 78.191406 C 51.507813 78.679688 51.664063 78.996094 51.828125 79.179688 C 52.132813 79.308594 52.453125 79.488281 52.789063 79.644531 C 53.097656 79.804688 53.257813 79.804688 53.578125 79.804688 C 53.898438 79.804688 54.214844 79.804688 54.523438 79.644531 C 54.710938 79.644531 55.023438 79.488281 55.339844 79.308594 C 55.515625 79.179688 55.648438 78.996094 55.824219 78.839844 C 55.960938 78.839844 56.144531 78.679688 56.292969 78.523438 L 56.460938 78.523438 L 56.460938 80.769531 C 56.292969 80.929688 55.960938 80.929688 55.648438 81.082031 C 55.339844 81.265625 55.023438 81.394531 54.710938 81.394531 L 54.710938 81.894531 C 54.710938 82.519531 54.375 83.019531 54.054688 83.460938 C 53.578125 83.769531 53.097656 83.949219 52.453125 83.949219 L 51.828125 83.949219 C 51.507813 83.949219 51.347656 83.769531 51.191406 83.769531 L 51.191406 82.519531 L 51.347656 82.519531 C 51.347656 82.699219 51.507813 82.699219 51.664063 82.699219 C 51.828125 82.699219 52.132813 82.832031 52.328125 82.832031 C 52.609375 82.832031 52.789063 82.699219 52.953125 82.519531 C 53.097656 82.335938 53.257813 82.207031 53.257813 81.707031 "/>
<g clip-path="url(#clip1)" clip-rule="nonzero">
<path style=" stroke:none;fill-rule:evenodd;fill:rgb(13.699341%,12.199402%,12.5%);fill-opacity:1;" d="M 8.613281 91.9375 C 8.613281 90.972656 8.4375 90.164063 8.125 89.542969 C 7.816406 88.917969 7.316406 88.417969 6.667969 87.917969 C 6.214844 87.792969 5.898438 87.609375 5.253906 87.480469 C 4.945313 87.480469 4.609375 87.292969 4.285156 87.292969 L 4.285156 89.042969 C 4.445313 89.222656 4.773438 89.222656 4.945313 89.359375 C 5.410156 89.542969 5.726563 89.84375 5.898438 90.320313 C 6.222656 90.660156 6.222656 91.3125 6.222656 91.757813 C 6.222656 92.4375 6.222656 92.882813 5.898438 93.375 C 5.726563 93.871094 5.410156 94.183594 4.945313 94.316406 C 4.773438 94.496094 4.609375 94.496094 4.285156 94.625 L 4.285156 96.402344 C 4.609375 96.402344 4.945313 96.246094 5.101563 96.246094 C 5.726563 96.066406 6.222656 95.933594 6.667969 95.59375 C 7.15625 95.308594 7.636719 94.8125 8.125 94.183594 C 8.4375 93.507813 8.613281 92.75 8.613281 91.9375 M 4.285156 96.402344 L 0 96.402344 L 0 87.292969 L 4.285156 87.292969 L 4.285156 89.042969 L 2.394531 89.042969 L 2.394531 94.625 L 4.285156 94.625 "/>
</g>
<g clip-path="url(#clip2)" clip-rule="nonzero">
<path style=" stroke:none;fill-rule:evenodd;fill:rgb(13.699341%,12.199402%,12.5%);fill-opacity:1;" d="M 19.300781 91.757813 C 19.300781 90.320313 18.964844 89.222656 18.007813 88.417969 C 17.207031 87.480469 16.09375 87.164063 14.691406 87.164063 L 14.691406 88.730469 C 14.980469 88.730469 15.136719 88.917969 15.472656 88.917969 C 15.78125 89.042969 15.941406 89.222656 16.28125 89.542969 C 16.417969 89.722656 16.582031 90.007813 16.75 90.476563 C 16.898438 90.820313 16.898438 91.3125 16.898438 91.757813 C 16.898438 92.4375 16.898438 92.753906 16.75 93.195313 C 16.582031 93.558594 16.417969 93.820313 16.28125 94.183594 C 15.941406 94.496094 15.78125 94.625 15.472656 94.625 C 15.136719 94.8125 14.980469 94.941406 14.691406 94.941406 L 14.691406 96.558594 C 16.09375 96.558594 17.207031 96.21875 18.007813 95.253906 C 18.964844 94.496094 19.300781 93.378906 19.300781 91.757813 M 14.691406 96.558594 C 13.222656 96.558594 11.933594 96.21875 11.152344 95.253906 C 10.363281 94.496094 9.863281 93.378906 9.863281 91.757813 C 9.863281 90.320313 10.363281 89.222656 11.152344 88.417969 C 11.933594 87.480469 13.222656 87.164063 14.691406 87.164063 L 14.691406 88.730469 C 14.324219 88.730469 14.035156 88.917969 13.691406 88.917969 C 13.546875 89.042969 13.222656 89.222656 13.066406 89.542969 C 12.898438 89.722656 12.746094 90.007813 12.589844 90.476563 C 12.429688 90.820313 12.429688 91.3125 12.429688 91.757813 C 12.429688 92.4375 12.429688 92.882813 12.589844 93.195313 C 12.589844 93.6875 12.898438 94 13.066406 94.183594 C 13.222656 94.496094 13.546875 94.625 13.691406 94.625 C 14.035156 94.8125 14.324219 94.941406 14.691406 94.941406 "/>
</g>
<g clip-path="url(#clip3)" clip-rule="nonzero">
<path style=" stroke:none;fill-rule:evenodd;fill:rgb(13.699341%,12.199402%,12.5%);fill-opacity:1;" d="M 32.054688 96.402344 L 25.351563 96.402344 L 25.351563 87.292969 L 32.054688 87.292969 L 32.054688 89.042969 L 27.738281 89.042969 L 27.738281 90.660156 L 31.742188 90.660156 L 31.742188 92.4375 L 27.738281 92.4375 L 27.738281 94.625 L 32.054688 94.625 "/>
</g>
<g clip-path="url(#clip4)" clip-rule="nonzero">
<path style=" stroke:none;fill-rule:evenodd;fill:rgb(13.699341%,12.199402%,12.5%);fill-opacity:1;" d="M 41.292969 93.507813 C 41.292969 94.496094 40.828125 95.125 40.167969 95.746094 C 39.363281 96.21875 38.285156 96.558594 36.984375 96.558594 C 36.203125 96.558594 35.570313 96.558594 35.089844 96.402344 C 34.445313 96.21875 33.976563 96.066406 33.511719 95.90625 L 33.511719 93.6875 L 33.8125 93.6875 C 34.28125 94 34.757813 94.316406 35.394531 94.625 C 36.023438 94.8125 36.519531 94.941406 37.148438 94.941406 C 37.304688 94.941406 37.484375 94.8125 37.625 94.8125 L 38.285156 94.8125 C 38.441406 94.625 38.585938 94.496094 38.585938 94.496094 C 38.75 94.316406 38.90625 94.183594 38.90625 94 C 38.90625 93.6875 38.75 93.507813 38.585938 93.378906 C 38.441406 93.378906 38.097656 93.238281 37.792969 93.0625 C 37.484375 93.0625 37.148438 92.882813 36.828125 92.882813 C 36.359375 92.753906 36.023438 92.753906 35.714844 92.5625 C 34.925781 92.4375 34.445313 92.074219 33.976563 91.628906 C 33.632813 91.132813 33.511719 90.660156 33.511719 90.007813 C 33.511719 89.222656 33.976563 88.417969 34.601563 87.917969 C 35.394531 87.480469 36.359375 87.164063 37.625 87.164063 C 38.285156 87.164063 38.75 87.164063 39.363281 87.292969 C 40.03125 87.480469 40.511719 87.609375 41 87.792969 L 41 89.84375 L 40.667969 89.84375 C 40.355469 89.542969 39.875 89.222656 39.222656 89.042969 C 38.75 88.917969 38.285156 88.730469 37.625 88.730469 C 37.484375 88.730469 37.304688 88.730469 37.148438 88.917969 C 36.828125 88.917969 36.679688 88.917969 36.519531 89.042969 C 36.359375 89.042969 36.203125 89.042969 36.023438 89.222656 C 36.023438 89.359375 35.894531 89.542969 35.894531 89.667969 C 35.894531 89.84375 36.023438 90.164063 36.203125 90.164063 C 36.359375 90.347656 36.679688 90.476563 37.304688 90.660156 C 37.625 90.660156 37.941406 90.660156 38.285156 90.820313 C 38.585938 90.820313 38.90625 90.972656 39.222656 91.132813 C 39.875 91.3125 40.511719 91.628906 40.828125 91.9375 C 41.148438 92.4375 41.292969 92.882813 41.292969 93.507813 "/>
</g>
<g clip-path="url(#clip5)" clip-rule="nonzero">
<path style=" stroke:none;fill-rule:evenodd;fill:rgb(13.699341%,12.199402%,12.5%);fill-opacity:1;" d="M 50.070313 89.042969 L 47.210938 89.042969 L 47.210938 96.398438 L 44.816406 96.398438 L 44.816406 89.042969 L 41.9375 89.042969 L 41.9375 87.292969 L 50.070313 87.292969 "/>
</g>
<g clip-path="url(#clip6)" clip-rule="nonzero">
<path style=" stroke:none;fill-rule:evenodd;fill:rgb(13.699341%,12.199402%,12.5%);fill-opacity:1;" d="M 59.8125 96.402344 L 56.460938 87.292969 L 55.179688 87.292969 L 55.179688 89.667969 L 56.144531 92.882813 L 55.179688 92.882813 L 55.179688 94.496094 L 56.78125 94.496094 L 57.40625 96.402344 Z M 55.179688 94.496094 L 53.417969 94.496094 L 52.789063 96.402344 L 50.40625 96.402344 L 53.722656 87.292969 L 55.179688 87.292969 L 55.179688 89.667969 L 54.054688 92.882813 L 55.179688 92.882813 "/>
</g>
<g clip-path="url(#clip7)" clip-rule="nonzero">
<path style=" stroke:none;fill-rule:evenodd;fill:rgb(13.699341%,12.199402%,12.5%);fill-opacity:1;" d="M 69.847656 91.9375 C 69.847656 90.972656 69.53125 90.164063 69.222656 89.542969 C 68.882813 88.917969 68.40625 88.417969 67.78125 87.917969 C 67.441406 87.792969 66.988281 87.609375 66.339844 87.480469 C 66.175781 87.480469 65.863281 87.292969 65.382813 87.292969 L 65.382813 89.042969 C 65.554688 89.222656 65.863281 89.222656 66.019531 89.359375 C 66.488281 89.542969 66.835938 89.84375 66.988281 90.320313 C 67.300781 90.660156 67.300781 91.3125 67.300781 91.757813 C 67.300781 92.4375 67.300781 92.882813 66.988281 93.375 C 66.835938 93.871094 66.488281 94.183594 66.175781 94.316406 C 65.863281 94.496094 65.710938 94.496094 65.382813 94.625 L 65.382813 96.402344 C 65.710938 96.402344 66.019531 96.246094 66.339844 96.246094 C 66.835938 96.066406 67.300781 95.933594 67.78125 95.59375 C 68.246094 95.308594 68.882813 94.8125 69.222656 94.183594 C 69.53125 93.507813 69.847656 92.75 69.847656 91.9375 M 65.382813 96.402344 L 61.234375 96.402344 L 61.234375 87.292969 L 65.382813 87.292969 L 65.382813 89.042969 L 63.472656 89.042969 L 63.472656 94.625 L 65.382813 94.625 "/>
</g>
<g clip-path="url(#clip8)" clip-rule="nonzero">
<path style=" stroke:none;fill-rule:evenodd;fill:rgb(13.699341%,12.199402%,12.5%);fill-opacity:1;" d="M 80.394531 91.757813 C 80.394531 90.320313 80.074219 89.222656 79.109375 88.417969 C 78.316406 87.480469 77.191406 87.164063 75.757813 87.164063 L 75.757813 88.730469 C 76.066406 88.730469 76.226563 88.917969 76.546875 88.917969 C 76.878906 89.042969 77.039063 89.222656 77.347656 89.542969 C 77.507813 89.722656 77.660156 90.007813 77.847656 90.476563 C 77.984375 90.820313 77.984375 91.3125 77.984375 91.757813 C 77.984375 92.4375 77.984375 92.753906 77.847656 93.195313 C 77.660156 93.558594 77.507813 93.820313 77.347656 94.183594 C 77.191406 94.496094 76.878906 94.625 76.546875 94.625 C 76.402344 94.8125 76.066406 94.941406 75.757813 94.941406 L 75.757813 96.558594 C 77.191406 96.558594 78.316406 96.21875 79.109375 95.253906 C 80.074219 94.496094 80.394531 93.378906 80.394531 91.757813 M 75.757813 96.558594 C 74.335938 96.558594 73.0625 96.21875 72.253906 95.253906 C 71.417969 94.496094 70.953125 93.378906 70.953125 91.757813 C 70.953125 90.320313 71.417969 89.222656 72.253906 88.417969 C 73.0625 87.480469 74.335938 87.164063 75.757813 87.164063 L 75.757813 88.730469 C 75.425781 88.730469 75.121094 88.917969 74.964844 88.917969 C 74.621094 89.042969 74.335938 89.222656 74.15625 89.542969 C 74.019531 89.722656 73.84375 90.007813 73.675781 90.476563 C 73.542969 90.820313 73.542969 91.3125 73.542969 91.757813 C 73.542969 92.4375 73.542969 92.882813 73.675781 93.195313 C 73.84375 93.6875 74.019531 94 74.15625 94.183594 C 74.335938 94.496094 74.621094 94.625 74.800781 94.625 C 75.121094 94.8125 75.425781 94.941406 75.757813 94.941406 "/>
</g>
<g clip-path="url(#clip9)" clip-rule="nonzero">
<path style=" stroke:none;fill-rule:evenodd;fill:rgb(13.699341%,12.199402%,12.5%);fill-opacity:1;" d="M 95.222656 91.9375 C 95.222656 90.972656 94.890625 90.164063 94.578125 89.542969 C 94.246094 88.917969 93.777344 88.417969 93.152344 87.917969 C 92.816406 87.792969 92.347656 87.609375 91.703125 87.480469 C 91.394531 87.480469 91.050781 87.292969 90.738281 87.292969 L 90.738281 89.042969 C 90.914063 89.222656 91.234375 89.222656 91.394531 89.359375 C 91.859375 89.542969 92.1875 89.84375 92.347656 90.320313 C 92.652344 90.660156 92.652344 91.3125 92.652344 91.757813 C 92.652344 92.4375 92.652344 92.882813 92.347656 93.375 C 92.1875 93.871094 91.859375 94.183594 91.394531 94.316406 C 91.234375 94.496094 91.050781 94.496094 90.738281 94.625 L 90.738281 96.402344 C 91.050781 96.402344 91.394531 96.246094 91.539063 96.246094 C 92.1875 96.066406 92.652344 95.933594 93.152344 95.59375 C 93.621094 95.308594 94.085938 94.8125 94.578125 94.183594 C 94.890625 93.507813 95.222656 92.75 95.222656 91.9375 M 90.738281 96.402344 L 86.429688 96.402344 L 86.429688 87.292969 L 90.738281 87.292969 L 90.738281 89.042969 L 88.8125 89.042969 L 88.8125 94.625 L 90.738281 94.625 "/>
</g>
<g clip-path="url(#clip10)" clip-rule="nonzero">
<path style=" stroke:none;fill-rule:evenodd;fill:rgb(13.699341%,12.199402%,12.5%);fill-opacity:1;" d="M 105.742188 91.757813 C 105.742188 90.320313 105.425781 89.222656 104.460938 88.417969 C 103.65625 87.480469 102.542969 87.164063 101.109375 87.164063 L 101.109375 88.730469 C 101.429688 88.730469 101.609375 88.917969 101.914063 88.917969 C 102.234375 89.042969 102.390625 89.222656 102.699219 89.542969 C 102.859375 89.722656 103.027344 90.007813 103.1875 90.476563 C 103.335938 90.820313 103.335938 91.3125 103.335938 91.757813 C 103.335938 92.4375 103.335938 92.753906 103.1875 93.195313 C 103.027344 93.558594 102.859375 93.820313 102.699219 94.183594 C 102.390625 94.496094 102.234375 94.625 101.914063 94.625 C 101.746094 94.8125 101.429688 94.941406 101.109375 94.941406 L 101.109375 96.558594 C 102.542969 96.558594 103.65625 96.21875 104.460938 95.253906 C 105.425781 94.496094 105.742188 93.378906 105.742188 91.757813 M 101.109375 96.558594 C 99.675781 96.558594 98.425781 96.21875 97.605469 95.253906 C 96.8125 94.496094 96.324219 93.378906 96.324219 91.757813 C 96.324219 90.320313 96.8125 89.222656 97.605469 88.417969 C 98.425781 87.480469 99.675781 87.164063 101.109375 87.164063 L 101.109375 88.730469 C 100.800781 88.730469 100.472656 88.917969 100.320313 88.917969 C 99.996094 89.042969 99.675781 89.222656 99.53125 89.542969 C 99.359375 89.722656 99.207031 90.007813 99.050781 90.476563 C 98.894531 90.820313 98.894531 91.3125 98.894531 91.757813 C 98.894531 92.4375 98.894531 92.882813 99.050781 93.195313 C 99.207031 93.6875 99.359375 94 99.53125 94.183594 C 99.675781 94.496094 99.996094 94.625 100.152344 94.625 C 100.472656 94.8125 100.800781 94.941406 101.109375 94.941406 "/>
</g>
<g clip-path="url(#clip11)" clip-rule="nonzero">
<path style=" stroke:none;fill-rule:evenodd;fill:rgb(13.699341%,12.199402%,12.5%);fill-opacity:1;" d="M 120.5625 96.402344 L 117.546875 92.5625 C 118.179688 92.257813 118.675781 91.9375 118.984375 91.445313 C 119.304688 90.972656 119.460938 90.476563 119.460938 89.84375 C 119.460938 89.359375 119.304688 88.917969 119.140625 88.601563 C 118.835938 88.28125 118.675781 87.917969 118.335938 87.792969 C 118.015625 87.609375 117.546875 87.480469 117.246094 87.480469 C 116.753906 87.292969 116.269531 87.292969 115.789063 87.292969 L 115.632813 87.292969 L 115.632813 88.917969 L 115.789063 88.917969 C 115.945313 89.042969 116.269531 89.042969 116.4375 89.042969 C 116.589844 89.222656 116.753906 89.359375 116.914063 89.542969 L 116.914063 90.660156 C 116.753906 90.820313 116.589844 90.972656 116.4375 91.132813 C 116.269531 91.3125 116.109375 91.3125 115.945313 91.3125 C 115.789063 91.3125 115.632813 91.3125 115.632813 91.445313 L 115.632813 93.378906 L 117.871094 96.402344 Z M 115.632813 93.378906 L 115.320313 93.0625 L 114.210938 93.0625 L 114.210938 96.402344 L 111.78125 96.402344 L 111.78125 87.292969 L 115.632813 87.292969 L 115.632813 88.917969 L 114.210938 88.917969 L 114.210938 91.445313 L 115.632813 91.445313 "/>
</g>
<g clip-path="url(#clip12)" clip-rule="nonzero">
<path style=" stroke:none;fill-rule:evenodd;fill:rgb(13.699341%,12.199402%,12.5%);fill-opacity:1;" d="M 126.628906 96.402344 L 121.210938 96.402344 L 121.210938 94.8125 L 122.8125 94.8125 L 122.8125 88.917969 L 121.210938 88.917969 L 121.210938 87.292969 L 126.628906 87.292969 L 126.628906 88.917969 L 125.203125 88.917969 L 125.203125 94.8125 L 126.628906 94.8125 "/>
</g>
<g clip-path="url(#clip13)" clip-rule="nonzero">
<path style=" stroke:none;fill-rule:evenodd;fill:rgb(13.699341%,12.199402%,12.5%);fill-opacity:1;" d="M 137.335938 91.757813 C 137.335938 90.320313 136.992188 89.222656 136.054688 88.417969 C 135.242188 87.480469 134.140625 87.164063 132.71875 87.164063 L 132.71875 88.730469 C 133.019531 88.730469 133.328125 88.917969 133.515625 88.917969 C 133.820313 89.042969 133.984375 89.222656 134.289063 89.542969 C 134.449219 89.722656 134.605469 90.007813 134.789063 90.476563 C 134.917969 90.820313 134.917969 91.3125 134.917969 91.757813 C 134.917969 92.4375 134.917969 92.753906 134.789063 93.195313 C 134.605469 93.558594 134.449219 93.820313 134.289063 94.183594 C 134.140625 94.496094 133.820313 94.625 133.515625 94.625 C 133.328125 94.8125 133.019531 94.941406 132.71875 94.941406 L 132.71875 96.558594 C 134.140625 96.558594 135.242188 96.21875 136.210938 95.253906 C 136.992188 94.496094 137.335938 93.378906 137.335938 91.757813 M 132.71875 96.558594 C 131.257813 96.558594 129.96875 96.21875 129.175781 95.253906 C 128.390625 94.496094 127.921875 93.378906 127.921875 91.757813 C 127.921875 90.320313 128.390625 89.222656 129.175781 88.417969 C 129.96875 87.480469 131.257813 87.164063 132.71875 87.164063 L 132.71875 88.730469 C 132.382813 88.730469 132.0625 88.917969 131.902344 88.917969 C 131.59375 89.042969 131.257813 89.222656 131.117188 89.542969 C 130.9375 89.722656 130.800781 90.007813 130.636719 90.476563 C 130.46875 90.820313 130.46875 91.3125 130.46875 91.757813 C 130.46875 92.4375 130.46875 92.882813 130.636719 93.195313 C 130.800781 93.6875 130.9375 94 131.117188 94.183594 C 131.257813 94.496094 131.59375 94.625 131.746094 94.625 C 132.0625 94.8125 132.382813 94.941406 132.71875 94.941406 "/>
</g>
<g clip-path="url(#clip14)" clip-rule="nonzero">
<path style=" stroke:none;fill-rule:evenodd;fill:rgb(13.699341%,12.199402%,12.5%);fill-opacity:1;" d="M 152.148438 91.9375 C 152.148438 90.972656 151.84375 90.164063 151.503906 89.542969 C 151.199219 88.917969 150.722656 88.417969 150.074219 87.917969 C 149.753906 87.792969 149.289063 87.609375 148.652344 87.480469 C 148.496094 87.480469 148.175781 87.292969 147.707031 87.292969 L 147.707031 89.042969 C 147.867188 89.222656 148.175781 89.222656 148.332031 89.359375 C 148.796875 89.542969 149.128906 89.84375 149.289063 90.320313 C 149.597656 90.660156 149.597656 91.3125 149.597656 91.757813 C 149.597656 92.4375 149.597656 92.882813 149.289063 93.375 C 149.128906 93.871094 148.796875 94.183594 148.496094 94.316406 C 148.175781 94.496094 148.015625 94.496094 147.707031 94.625 L 147.707031 96.402344 C 148.015625 96.402344 148.332031 96.246094 148.652344 96.246094 C 149.128906 96.066406 149.597656 95.933594 150.074219 95.59375 C 150.558594 95.308594 151.039063 94.8125 151.503906 94.183594 C 151.84375 93.507813 152.148438 92.75 152.148438 91.9375 M 147.707031 96.402344 L 143.53125 96.402344 L 143.53125 87.292969 L 147.707031 87.292969 L 147.707031 89.042969 L 145.769531 89.042969 L 145.769531 94.625 L 147.707031 94.625 "/>
</g>
<g clip-path="url(#clip15)" clip-rule="nonzero">
<path style=" stroke:none;fill-rule:evenodd;fill:rgb(13.699341%,12.199402%,12.5%);fill-opacity:1;" d="M 160.449219 96.402344 L 153.925781 96.402344 L 153.925781 87.292969 L 160.449219 87.292969 L 160.449219 89.042969 L 156.320313 89.042969 L 156.320313 90.660156 L 160.128906 90.660156 L 160.128906 92.4375 L 156.320313 92.4375 L 156.320313 94.625 L 160.449219 94.625 "/>
</g>
<g clip-path="url(#clip16)" clip-rule="nonzero">
<path style=" stroke:none;fill-rule:evenodd;fill:rgb(13.699341%,12.199402%,12.5%);fill-opacity:1;" d="M 171.46875 93.6875 C 171.46875 94.183594 171.46875 94.496094 171.300781 94.8125 C 171.160156 95.125 170.988281 95.441406 170.652344 95.746094 C 170.34375 95.933594 170.007813 96.246094 169.539063 96.402344 C 169.070313 96.402344 168.585938 96.558594 167.9375 96.558594 L 166.835938 96.558594 C 166.367188 96.402344 166.027344 96.402344 165.867188 96.402344 L 165.867188 94.496094 L 166.027344 94.496094 C 166.183594 94.625 166.527344 94.625 166.652344 94.8125 L 167.460938 94.8125 C 167.9375 94.8125 168.277344 94.8125 168.429688 94.625 C 168.753906 94.496094 168.910156 94.316406 168.910156 94.183594 C 169.070313 94 169.070313 93.6875 169.070313 93.558594 L 169.070313 88.917969 L 166.992188 88.917969 L 166.992188 87.292969 L 171.46875 87.292969 "/>
</g>
<g clip-path="url(#clip17)" clip-rule="nonzero">
<path style=" stroke:none;fill-rule:evenodd;fill:rgb(13.699341%,12.199402%,12.5%);fill-opacity:1;" d="M 182.140625 96.402344 L 178.78125 87.292969 L 177.355469 87.292969 L 177.355469 89.667969 L 178.46875 92.882813 L 177.355469 92.882813 L 177.355469 94.496094 L 178.949219 94.496094 L 179.582031 96.402344 Z M 177.355469 94.496094 L 175.765625 94.496094 L 175.117188 96.402344 L 172.730469 96.402344 L 176.074219 87.292969 L 177.355469 87.292969 L 177.355469 89.667969 L 176.242188 92.882813 L 177.355469 92.882813 "/>
</g>
<g clip-path="url(#clip18)" clip-rule="nonzero">
<path style=" stroke:none;fill-rule:evenodd;fill:rgb(13.699341%,12.199402%,12.5%);fill-opacity:1;" d="M 191.710938 96.402344 L 189.476563 96.402344 L 185.648438 90.164063 L 185.648438 96.402344 L 183.421875 96.402344 L 183.421875 87.292969 L 186.277344 87.292969 L 189.476563 92.5625 L 189.476563 87.292969 L 191.710938 87.292969 "/>
</g>
<g clip-path="url(#clip19)" clip-rule="nonzero">
<path style=" stroke:none;fill-rule:evenodd;fill:rgb(13.699341%,12.199402%,12.5%);fill-opacity:1;" d="M 200.640625 96.402344 L 194.125 96.402344 L 194.125 87.292969 L 200.640625 87.292969 L 200.640625 89.042969 L 196.332031 89.042969 L 196.332031 90.660156 L 200.324219 90.660156 L 200.324219 92.4375 L 196.332031 92.4375 L 196.332031 94.625 L 200.640625 94.625 "/>
</g>
<g clip-path="url(#clip20)" clip-rule="nonzero">
<path style=" stroke:none;fill-rule:evenodd;fill:rgb(13.699341%,12.199402%,12.5%);fill-opacity:1;" d="M 207.515625 96.402344 L 202.242188 96.402344 L 202.242188 94.8125 L 203.675781 94.8125 L 203.675781 88.917969 L 202.242188 88.917969 L 202.242188 87.292969 L 207.515625 87.292969 L 207.515625 88.917969 L 206.058594 88.917969 L 206.058594 94.8125 L 207.515625 94.8125 "/>
</g>
<g clip-path="url(#clip21)" clip-rule="nonzero">
<path style=" stroke:none;fill-rule:evenodd;fill:rgb(13.699341%,12.199402%,12.5%);fill-opacity:1;" d="M 218.195313 96.402344 L 215.160156 92.5625 C 215.796875 92.257813 216.261719 91.9375 216.433594 91.445313 C 216.753906 90.972656 216.910156 90.476563 216.910156 89.84375 C 216.910156 89.359375 216.910156 88.917969 216.753906 88.601563 C 216.433594 88.28125 216.261719 87.917969 215.796875 87.792969 C 215.46875 87.609375 215.160156 87.480469 214.839844 87.480469 C 214.375 87.292969 213.890625 87.292969 213.410156 87.292969 L 213.246094 87.292969 L 213.246094 88.917969 L 213.410156 88.917969 C 213.582031 89.042969 213.71875 89.042969 213.890625 89.042969 C 214.203125 89.222656 214.375 89.359375 214.375 89.542969 C 214.535156 89.722656 214.535156 89.84375 214.535156 90.007813 C 214.535156 90.347656 214.535156 90.476563 214.375 90.660156 C 214.375 90.820313 214.203125 90.972656 214.046875 91.132813 C 213.890625 91.3125 213.71875 91.3125 213.410156 91.3125 C 213.410156 91.3125 213.246094 91.3125 213.246094 91.445313 L 213.246094 93.378906 L 215.304688 96.402344 Z M 213.246094 93.378906 L 212.945313 93.0625 L 211.820313 93.0625 L 211.820313 96.402344 L 209.441406 96.402344 L 209.441406 87.292969 L 213.246094 87.292969 L 213.246094 88.917969 L 211.820313 88.917969 L 211.820313 91.445313 L 213.246094 91.445313 "/>
</g>
<g clip-path="url(#clip22)" clip-rule="nonzero">
<path style=" stroke:none;fill-rule:evenodd;fill:rgb(13.699341%,12.199402%,12.5%);fill-opacity:1;" d="M 228.070313 91.757813 C 228.070313 90.320313 227.75 89.222656 226.800781 88.417969 C 226.011719 87.480469 224.910156 87.164063 223.464844 87.164063 L 223.464844 88.730469 C 223.785156 88.730469 223.941406 88.917969 224.253906 88.917969 C 224.566406 89.042969 224.753906 89.222656 225.046875 89.542969 C 225.21875 89.722656 225.367188 90.007813 225.511719 90.476563 C 225.675781 90.820313 225.675781 91.3125 225.675781 91.757813 C 225.675781 92.4375 225.675781 92.753906 225.511719 93.195313 C 225.367188 93.558594 225.21875 93.820313 225.046875 94.183594 C 224.753906 94.496094 224.566406 94.625 224.253906 94.625 C 223.941406 94.8125 223.785156 94.941406 223.464844 94.941406 L 223.464844 96.558594 C 224.910156 96.558594 226.011719 96.21875 226.800781 95.253906 C 227.75 94.496094 228.070313 93.378906 228.070313 91.757813 M 223.464844 96.558594 C 222.023438 96.558594 220.738281 96.21875 219.945313 95.253906 C 219.136719 94.496094 218.667969 93.378906 218.667969 91.757813 C 218.667969 90.320313 219.136719 89.222656 219.945313 88.417969 C 220.738281 87.480469 222.023438 87.164063 223.464844 87.164063 L 223.464844 88.730469 C 223.140625 88.730469 222.828125 88.917969 222.492188 88.917969 C 222.328125 89.042969 222.023438 89.222656 221.828125 89.542969 C 221.703125 89.722656 221.527344 90.007813 221.394531 90.476563 C 221.207031 90.820313 221.207031 91.3125 221.207031 91.757813 C 221.207031 92.4375 221.207031 92.882813 221.394531 93.195313 C 221.394531 93.6875 221.703125 94 221.828125 94.183594 C 222.023438 94.496094 222.328125 94.625 222.492188 94.625 C 222.828125 94.8125 223.140625 94.941406 223.464844 94.941406 "/>
</g>
<path style=" stroke:none;fill-rule:evenodd;fill:rgb(0%,39.99939%,65.098572%);fill-opacity:1;" d="M 43.214844 25.210938 L 16.273438 25.210938 L 16.273438 13.414063 L 45.296875 13.414063 L 45.296875 1.277344 L 0 1.277344 L 0 64.277344 L 16.273438 64.277344 L 16.273438 37.476563 L 43.214844 37.476563 "/>
<path style=" stroke:none;fill-rule:evenodd;fill:rgb(0%,39.99939%,65.098572%);fill-opacity:1;" d="M 72.574219 51.492188 L 72.574219 40.035156 L 80.363281 40.035156 L 72.574219 17.378906 L 72.574219 1.277344 L 82.132813 1.277344 L 105.425781 64.277344 L 88.6875 64.277344 L 84.359375 51.492188 Z M 63.460938 1.277344 L 40.167969 64.277344 L 56.601563 64.277344 L 60.917969 51.492188 L 72.574219 51.492188 L 72.574219 40.035156 L 64.894531 40.035156 L 72.574219 17.378906 L 72.574219 1.277344 "/>
<path style=" stroke:none;fill-rule:evenodd;fill:rgb(0%,39.99939%,65.098572%);fill-opacity:1;" d="M 112.117188 64.277344 L 157.746094 64.277344 L 157.746094 52.117188 L 128.234375 52.117188 L 128.234375 36.507813 L 155.496094 36.507813 L 155.496094 24.402344 L 128.234375 24.402344 L 128.234375 13.363281 L 157.746094 13.363281 L 157.746094 1.277344 L 112.117188 1.277344 "/>
<path style=" stroke:none;fill-rule:evenodd;fill:rgb(0%,39.99939%,65.098572%);fill-opacity:1;" d="M 164.605469 13.414063 L 184.390625 13.414063 L 184.390625 64.277344 L 200.640625 64.277344 L 200.640625 13.414063 L 220.269531 13.414063 L 220.269531 1.277344 L 164.605469 1.277344 "/>
<path style=" stroke:none;fill-rule:evenodd;fill:rgb(0%,39.99939%,65.098572%);fill-opacity:1;" d="M 272.109375 52.117188 L 242.75 52.117188 L 242.75 36.507813 L 270.015625 36.507813 L 270.015625 24.402344 L 242.75 24.402344 L 242.75 13.414063 L 272.109375 13.414063 L 272.109375 1.277344 L 226.511719 1.277344 L 226.511719 64.277344 L 272.109375 64.277344 "/>
<g clip-path="url(#clip23)" clip-rule="nonzero">
<path style=" stroke:none;fill-rule:evenodd;fill:rgb(0%,39.99939%,65.098572%);fill-opacity:1;" d="M 324.4375 1.59375 C 322.660156 1.121094 320.597656 0.78125 318.519531 0.46875 C 316.46875 0.152344 314.054688 0 311.339844 0 C 306.566406 0 302.089844 0.78125 298.089844 2.242188 C 293.964844 3.808594 290.605469 6.03125 287.910156 8.765625 C 285.019531 11.613281 282.773438 15.136719 281.347656 19.257813 C 279.921875 23.277344 279.109375 27.925781 279.109375 32.886719 C 279.109375 38.285156 279.921875 43.035156 281.542969 47.027344 C 282.953125 51.179688 285.199219 54.699219 288.066406 57.386719 C 290.917969 60.128906 294.269531 62.214844 298.25 63.625 C 302.246094 64.929688 306.566406 65.746094 311.339844 65.746094 C 314.554688 65.746094 316.9375 65.554688 318.859375 65.246094 C 320.597656 64.929688 322.519531 64.460938 324.566406 63.785156 C 326.175781 63.285156 327.609375 62.84375 329.042969 62.214844 C 330.484375 61.589844 332.074219 60.917969 333.675781 60.285156 L 333.675781 45.121094 L 331.917969 45.121094 C 331.113281 45.773438 330.167969 46.582031 329.042969 47.523438 C 327.769531 48.464844 326.507813 49.265625 325.226563 50.050781 C 323.472656 51.179688 321.710938 51.980469 319.796875 52.480469 C 317.871094 53.105469 315.972656 53.421875 313.894531 53.421875 C 311.828125 53.421875 309.746094 53.105469 307.6875 52.480469 C 305.609375 51.800781 303.679688 50.730469 301.933594 49.113281 C 300.167969 47.523438 298.910156 45.460938 297.78125 42.878906 C 296.660156 40.1875 296.023438 36.824219 296.023438 33.039063 C 296.023438 29.175781 296.519531 25.992188 297.625 23.277344 C 298.585938 20.5625 300.011719 18.5 301.621094 16.882813 C 303.359375 15.289063 305.304688 14.042969 307.363281 13.363281 C 309.414063 12.601563 311.496094 12.292969 313.894531 12.292969 C 315.972656 12.292969 317.871094 12.601563 319.664063 13.238281 C 321.398438 13.675781 323.144531 14.480469 324.757813 15.453125 C 326.175781 16.257813 327.609375 17.203125 328.714844 18.195313 C 330.003906 19.128906 330.949219 19.9375 331.757813 20.5625 L 333.675781 20.5625 L 333.675781 5.246094 C 332.394531 4.621094 331.113281 4.152344 329.523438 3.335938 C 328.078125 2.710938 326.328125 2.242188 324.4375 1.59375 "/>
</g>
</g>
</svg>
